PathFileType	4	(X/Y/Z)	/Users/itak/Documents/Research/Walk-IL/dataset/trc/00020_00004.trc
DataRate	CameraRate	NumFrames	NumMarkers	Units	OrigDataRate	OrigDataStartFrame	OrigNumFrames
100.000000	100.000000	4	53	mm	100.000000	560	896
Frame#	Time	RPSI			LPSI			L3			STRN			T10			C7			CLAV			RBAK			LBAK			LSHO			LUPA			LAEL			LAOL			LWTS			LWPS			LFRA			LIFD			LHPS			LHTS			RSHO			RUPA			RAEL			RAOL			RWTS			RWPS			RFRA			RIFD			RHTS			RHPS			RBHD			LFHD			RFHD			LBHD			LHIP			RHIP			RASI			LASI			LKNE			LTHI			LANK			LTIP			LTOE			LMT1			LMT5			LHEE			RKNE			RTHI			RANK			RTIP			RTOE			RMT1			RMT5			RHEE			
		X1	Y1	Z1	X2	Y2	Z2	X3	Y3	Z3	X4	Y4	Z4	X5	Y5	Z5	X6	Y6	Z6	X7	Y7	Z7	X8	Y8	Z8	X9	Y9	Z9	X10	Y10	Z10	X11	Y11	Z11	X12	Y12	Z12	X13	Y13	Z13	X14	Y14	Z14	X15	Y15	Z15	X16	Y16	Z16	X17	Y17	Z17	X18	Y18	Z18	X19	Y19	Z19	X20	Y20	Z20	X21	Y21	Z21	X22	Y22	Z22	X23	Y23	Z23	X24	Y24	Z24	X25	Y25	Z25	X26	Y26	Z26	X27	Y27	Z27	X28	Y28	Z28	X29	Y29	Z29	X30	Y30	Z30	X31	Y31	Z31	X32	Y32	Z32	X33	Y33	Z33	X34	Y34	Z34	X35	Y35	Z35	X36	Y36	Z36	X37	Y37	Z37	X38	Y38	Z38	X39	Y39	Z39	X40	Y40	Z40	X41	Y41	Z41	X42	Y42	Z42	X43	Y43	Z43	X44	Y44	Z44	X45	Y45	Z45	X46	Y46	Z46	X47	Y47	Z47	X48	Y48	Z48	X49	Y49	Z49	X50	Y50	Z50	X51	Y51	Z51	X52	Y52	Z52	X53	Y53	Z53	

561	5.600000000000001	-115.0541152954102	1060.24755859375	-915.6177978515625	-22.02317047119141	1040.114624023438	-783.758544921875	-55.13315582275391	1115.432739257812	-842.5902099609375	-233.2415008544922	1309.016479492188	-710.445068359375	-22.47233009338379	1259.258422851562	-844.73583984375	-41.896484375	1524.638061523438	-787.157958984375	-184.6786651611328	1432.037353515625	-718.29052734375	-44.54999542236328	1397.811401367188	-895.6709594726562	21.59040069580078	1472.125244140625	-719.2649536132812	-26.41068840026855	1469.171142578125	-602.3059692382812	38.90624237060547	1339.529296875	-567.7003173828125	54.10134124755859	1122.265014648438	-571.9112548828125	48.00180435180664	1120.99951171875	-677.5444946289062	-72.67653656005859	883.1491088867188	-574.6295776367188	9.957286834716797	858.4692993164062	-594.8703002929688	39.10953140258789	1006.904296875	-567.3428955078125	-132.2714080810547	705.2188110351562	-580.2943115234375	-28.76328086853027	772.064697265625	-580.3233642578125	-90.35003662109375	790.2064208984375	-555.1441650390625	-197.5585479736328	1529.707763671875	-895.4929809570312	-223.3838195800781	1470.52880859375	-973.3670043945312	-214.9573211669922	1221.429809570312	-1066.743896484375	-160.6733093261719	1177.694458007812	-994.10302734375	-298.4142761230469	946.0711669921875	-1038.864868164062	-281.3125915527344	953.595947265625	-1128.714111328125	-233.3009033203125	1150.342163085938	-1089.923583984375	-286.9562377929688	764.187255859375	-1046.474365234375	-325.0700378417969	836.0599975585938	-1053.638793945312	-307.4517822265625	845.1640014648438	-1126.081420898438	-180.3181457519531	1716.642456054688	-761.8692016601562	-174.8243713378906	1668.185913085938	-556.1444091796875	-256.894287109375	1683.519165039062	-607.8546142578125	-55.37705230712891	1699.952880859375	-691.2507934570312	-48.45900344848633	937.8460693359375	-644.0100708007812	-278.6658935546875	960.3927001953125	-935.784912109375	-314.0000915527344	995.7460327148438	-819.6353149414062	-175.6361236572266	990.6470336914062	-628.4633178710938	-179.1277313232422	503.4522705078125	-700.2710571289062	-119.3414535522461	632.8483276367188	-668.3721313476562	-105.433235168457	34.32466125488281	-830.4513549804688	-111.8982315063477	266.9784851074219	-764.4613647460938	-331.5410766601562	36.19649887084961	-793.335205078125	-285.0658264160156	43.95413970947266	-831.17138671875	-207.8359985351562	36.50315093994141	-757.501708984375	-67.66413116455078	45.04097366333008	-907.148193359375	-381.0999145507812	535.3656616210938	-855.4396362304688	-334.97314453125	803.7818603515625	-911.2769165039062	-190.2179107666016	106.7031631469727	-1040.427612304688	-350.7866821289062	419.6499938964844	-899.6682739257812	-380.3695678710938	50.36709594726562	-921.387939453125	-310.8680725097656	59.72286605834961	-916.1964721679688	-331.5343933105469	74.50640106201172	-1009.742492675781	-122.0272369384766	112.1178131103516	-1020.253234863281	
562	5.61	-124.0481109619141	1060.045043945312	-912.08837890625	-28.16399192810059	1039.857299804688	-782.3475952148438	-62.59315872192383	1115.179809570312	-840.2470703125	-237.9127807617188	1308.8203125	-704.9366455078125	-29.3526496887207	1259.02734375	-843.0811767578125	-48.0766487121582	1524.422973632812	-785.2802124023438	-189.5306701660156	1431.808715820312	-713.86279296875	-52.45691680908203	1397.457397460938	-893.6624145507812	16.61859512329102	1472.026489257812	-718.4976196289062	-29.29545402526855	1469.1630859375	-600.6998291015625	36.83774566650391	1339.650756835938	-567.1026000976562	52.25445175170898	1122.344848632812	-571.2103881835938	44.39247894287109	1120.869384765625	-676.718017578125	-75.0565185546875	883.4953002929688	-571.3896484375	7.259350299835205	858.5930786132812	-592.7594604492188	37.18572616577148	1007.039123535156	-566.2420043945312	-135.0538330078125	705.6738891601562	-575.7785034179688	-31.40567588806152	772.30615234375	-577.4378051757812	-93.16416931152344	790.77685546875	-551.4511108398438	-205.53564453125	1529.210327148438	-890.996826171875	-232.6395111083984	1469.917358398438	-968.3403930664062	-225.7374572753906	1220.736206054688	-1061.580688476562	-170.4051361083984	1176.940185546875	-989.69580078125	-308.8208618164062	945.4363403320312	-1032.11962890625	-292.9928283691406	952.88720703125	-1122.263916015625	-244.4955139160156	1149.659912109375	-1084.377685546875	-297.7200927734375	763.5806274414062	-1039.746337890625	-335.6275939941406	835.4197387695312	-1046.365478515625	-319.238037109375	844.45556640625	-1119.11572265625	-186.3279571533203	1716.401977539062	-757.8936767578125	-178.7769165039062	1667.731567382812	-552.2515258789062	-261.2724304199219	1682.90966796875	-603.1104125976562	-60.64689636230469	1699.917358398438	-688.5013427734375	-51.28598785400391	937.4956665039062	-642.2691040039062	-288.2409362792969	960.3939208984375	-928.697998046875	-320.7122802734375	995.681640625	-811.7139282226562	-178.1165008544922	990.1924438476562	-623.5984497070312	-179.7445678710938	502.6475219726562	-698.3380737304688	-120.6912612915039	632.5703735351562	-666.9454345703125	-105.4463043212891	34.38545227050781	-830.5165405273438	-112.2902526855469	266.8562622070312	-763.8986206054688	-331.5285949707031	36.21725463867188	-793.2876586914062	-285.07177734375	43.9930534362793	-831.1111450195312	-207.7464752197266	36.43373870849609	-757.4212036132812	-67.74416351318359	45.11700820922852	-907.1781616210938	-390.3739318847656	536.4805908203125	-843.0945434570312	-344.5495300292969	804.1472778320312	-901.9388427734375	-219.2716979980469	99.36147308349609	-1026.994262695312	-364.6964111328125	419.6076049804688	-886.3782958984375	-404.9871520996094	51.00850677490234	-897.8262939453125	-335.1937561035156	58.67280960083008	-896.0870971679688	-359.8129272460938	71.7352294921875	-988.933349609375	-150.0838317871094	103.47802734375	-1010.310241699219	
563	5.62	-132.9689178466797	1059.812133789062	-908.49658203125	-34.2866096496582	1039.568725585938	-780.9169311523438	-70.00128173828125	1114.899169921875	-837.8680419921875	-242.5091552734375	1308.569091796875	-699.40869140625	-36.29401016235352	1258.784790039062	-841.3917846679688	-54.29483795166016	1524.19677734375	-783.3724365234375	-194.3557434082031	1431.527099609375	-709.3981323242188	-60.43112182617188	1397.09619140625	-891.6083374023438	11.61399745941162	1471.899780273438	-717.7447509765625	-32.17464447021484	1469.107421875	-599.1292114257812	34.78462982177734	1339.724487304688	-566.60546875	50.45154190063477	1122.389282226562	-570.6302490234375	40.74933624267578	1120.694213867188	-675.9893188476562	-77.23764038085938	883.7463989257812	-568.1702880859375	4.728126049041748	858.6573486328125	-590.7496337890625	35.36831665039062	1007.12548828125	-565.2657470703125	-137.4947814941406	705.9977416992188	-571.175048828125	-33.79250717163086	772.471923828125	-574.59912109375	-95.58660125732422	791.2374877929688	-547.7161865234375	-213.5438690185547	1528.691650390625	-886.3829956054688	-241.9391479492188	1469.289306640625	-963.1796264648438	-236.5439758300781	1220.0361328125	-1056.287353515625	-180.0859832763672	1176.229736328125	-985.2415161132812	-319.1567077636719	944.7734375	-1025.23291015625	-304.6782531738281	952.1597900390625	-1115.651123046875	-255.7246398925781	1148.968017578125	-1078.689086914062	-308.260498046875	762.93701171875	-1032.896484375	-346.0894470214844	834.7472534179688	-1038.933715820312	-330.9778137207031	843.7235107421875	-1111.98583984375	-192.3601989746094	1716.111083984375	-753.7973022460938	-182.6963653564453	1667.175048828125	-548.2805786132812	-265.6383972167969	1682.205932617188	-598.2762451171875	-65.95152282714844	1699.834350585938	-685.6572875976562	-54.08633041381836	937.14013671875	-640.5914916992188	-297.6242370605469	960.340576171875	-921.5232543945312	-327.2955932617188	995.5639038085938	-803.7883911132812	-180.5359802246094	989.7056884765625	-618.8148803710938	-180.2964324951172	501.8673400878906	-696.35546875	-122.0065994262695	632.2805786132812	-665.5105590820312	-105.4675598144531	34.44425964355469	-830.5828857421875	-112.6618881225586	266.7673645019531	-763.3340454101562	-331.5010375976562	36.25667953491211	-793.221923828125	-285.071044921875	44.04226684570312	-831.0425415039062	-207.6554412841797	36.36737060546875	-757.3311767578125	-67.79465484619141	45.22518920898438	-907.2467041015625	-399.4608154296875	537.627685546875	-830.7188110351562	-353.8467102050781	804.4786987304688	-892.537109375	-247.8749389648438	92.68885040283203	-1012.3154296875	-378.2067565917969	419.6594543457031	-872.7318725585938	-428.1978454589844	51.84923553466797	-873.1810302734375	-358.3464050292969	57.98003005981445	-874.9437866210938	-387.0368041992188	69.31758880615234	-966.8704833984375	-177.8681640625	95.57162475585938	-999.1785278320312	
564	5.63	-141.8063201904297	1059.543579101562	-904.8440551757812	-40.37380218505859	1039.2529296875	-779.4601440429688	-77.33367919921875	1114.605590820312	-835.4566650390625	-247.0352935791016	1308.2626953125	-693.8593139648438	-43.29320907592773	1258.541625976562	-839.6553955078125	-60.55888366699219	1523.955078125	-781.4163818359375	-199.1624450683594	1431.200073242188	-704.8909301757812	-68.47337341308594	1396.727661132812	-889.4878540039062	6.567520618438721	1471.750610351562	-716.9840698242188	-35.06139373779297	1469.0078125	-597.5787353515625	32.72858428955078	1339.753295898438	-566.1941528320312	48.67637634277344	1122.406616210938	-570.1622924804688	37.07755661010742	1120.500244140625	-675.353759765625	-79.23571014404297	883.9127807617188	-564.970458984375	2.340890169143677	858.6692504882812	-588.8390502929688	33.63162612915039	1007.168579101562	-564.3967895507812	-139.6164703369141	706.1989135742188	-566.4955444335938	-35.95326232910156	772.5684204101562	-571.8130493164062	-97.60852813720703	791.5867309570312	-543.9461669921875	-221.5765380859375	1528.154907226562	-881.6447143554688	-251.2721252441406	1468.648803710938	-957.879638671875	-247.3678894042969	1219.334594726562	-1050.861694335938	-189.7811279296875	1175.510620117188	-980.7042236328125	-329.4094543457031	944.0894775390625	-1018.209899902344	-316.3694763183594	951.4170532226562	-1108.875	-266.9647216796875	1148.268920898438	-1072.85888671875	-318.5418090820312	762.258056640625	-1025.929931640625	-356.4613037109375	834.0511474609375	-1031.347412109375	-342.6640625	842.9741821289062	-1104.692260742188	-198.4156036376953	1715.766479492188	-749.5787353515625	-186.5848693847656	1666.527587890625	-544.2301025390625	-269.9961242675781	1681.415649414062	-593.3525390625	-71.29090881347656	1699.706420898438	-682.7161254882812	-56.87875747680664	936.7742919921875	-638.964599609375	-306.8169555664062	960.2385864257812	-914.2734375	-333.7486572265625	995.3934936523438	-795.8731689453125	-182.9062805175781	989.1910400390625	-614.114013671875	-180.8082122802734	501.1202087402344	-694.3190307617188	-123.2982788085938	631.9696044921875	-664.03955078125	-105.4972229003906	34.50345230102539	-830.6505737304688	-113.0146789550781	266.7207336425781	-762.7789916992188	-331.4568176269531	36.31827926635742	-793.1381225585938	-285.0651245117188	44.10488510131836	-830.964599609375	-207.5648651123047	36.30720520019531	-757.2288208007812	-67.81024932861328	45.38216781616211	-907.3583374023438	-408.3429260253906	538.8087158203125	-818.3486938476562	-362.88623046875	804.7831420898438	-883.0972290039062	-275.8689880371094	86.69290161132812	-996.4154052734375	-391.2573852539062	419.8119506835938	-858.7772827148438	-450.0168151855469	52.85743713378906	-847.6777954101562	-380.305419921875	57.58921051025391	-852.93408203125	-413.1211547851562	67.26374816894531	-943.7205810546875	-205.2366790771484	88.38333129882812	-986.8043823242188	
